HIERARCHY
ROOT reference
{
  OFFSET 0 0 0
  CHANNELS 6 Xposition Yposition Zposition Zrotation Xrotation Yrotation
  JOINT Hips
  {
    OFFSET -29.6977 84.5938 106.288
    CHANNELS 6 Xposition Yposition Zposition Zrotation Xrotation Yrotation
    JOINT Spine
    {
      OFFSET 0 8.22665 0
      CHANNELS 6 Xposition Yposition Zposition Zrotation Xrotation Yrotation
      JOINT Spine1
      {
        OFFSET 0 24.451 0
        CHANNELS 6 Xposition Yposition Zposition Zrotation Xrotation Yrotation
        JOINT Neck
        {
          OFFSET 0 24.3506 2.21369
          CHANNELS 6 Xposition Yposition Zposition Zrotation Xrotation Yrotation
          JOINT Head
          {
            OFFSET 0 14.0455 -2.0065
            CHANNELS 6 Xposition Yposition Zposition Zrotation Xrotation Yrotation
            End Site
            {
              OFFSET 0 25.0812 0
            }
          }
        }
        JOINT LeftShoulder
        {
          OFFSET 4.0594 22.2558 -0.272799
          CHANNELS 6 Xposition Yposition Zposition Zrotation Xrotation Yrotation
          JOINT LeftArm
          {
            OFFSET 12.0298 0 0
            CHANNELS 6 Xposition Yposition Zposition Zrotation Xrotation Yrotation
            JOINT LeftForeArm
            {
              OFFSET 31.2689 0 0
              CHANNELS 6 Xposition Yposition Zposition Zrotation Xrotation Yrotation
              JOINT LeftHand
              {
                OFFSET 28.0275 0 0
                CHANNELS 6 Xposition Yposition Zposition Zrotation Xrotation Yrotation
                End Site
                {
                  OFFSET 15.0487 0 0
                }
              }
            }
          }
        }
        JOINT RightShoulder
        {
          OFFSET -3.96464 22.2558 -0.272799
          CHANNELS 6 Xposition Yposition Zposition Zrotation Xrotation Yrotation
          JOINT RightArm
          {
            OFFSET -12.0298 0 0
            CHANNELS 6 Xposition Yposition Zposition Zrotation Xrotation Yrotation
            JOINT RightForeArm
            {
              OFFSET -31.2689 0 0
              CHANNELS 6 Xposition Yposition Zposition Zrotation Xrotation Yrotation
              JOINT RightHand
              {
                OFFSET -28.0275 0 0
                CHANNELS 6 Xposition Yposition Zposition Zrotation Xrotation Yrotation
                End Site
                {
                  OFFSET -15.0487 0 0
                }
              }
            }
          }
        }
      }
    }
    JOINT LeftUpLeg
    {
      OFFSET 10.0325 0 0
      CHANNELS 6 Xposition Yposition Zposition Zrotation Xrotation Yrotation
      JOINT LeftLeg
      {
        OFFSET 0 -38.4033 0
        CHANNELS 6 Xposition Yposition Zposition Zrotation Xrotation Yrotation
        JOINT LeftFoot
        {
          OFFSET 0 -44.1642 0
          CHANNELS 6 Xposition Yposition Zposition Zrotation Xrotation Yrotation
          JOINT LeftToeBase
          {
            OFFSET 0 -6.52112 15.0487
            CHANNELS 6 Xposition Yposition Zposition Zrotation Xrotation Yrotation
            End Site
            {
              OFFSET 0 0 4.013
            }
          }
        }
      }
    }
    JOINT RightUpLeg
    {
      OFFSET -10.0325 0 0
      CHANNELS 6 Xposition Yposition Zposition Zrotation Xrotation Yrotation
      JOINT RightLeg
      {
        OFFSET 0 -38.4033 0
        CHANNELS 6 Xposition Yposition Zposition Zrotation Xrotation Yrotation
        JOINT RightFoot
        {
          OFFSET 0 -44.1642 0
          CHANNELS 6 Xposition Yposition Zposition Zrotation Xrotation Yrotation
          JOINT RightToeBase
          {
            OFFSET 0 -6.52112 15.0487
            CHANNELS 6 Xposition Yposition Zposition Zrotation Xrotation Yrotation
            End Site
            {
              OFFSET 0 0 4.013
            }
          }
        }
      }
    }
  }
}
MOTION
Frames:	11
Frame Time:	0.004
0 0 0 0 0 -0 -29.9372 86.0646 -203.528 0.664669 -3.2879 0.036958 3.55271e-015 8.22665 0 0.350546 -3.35743 0.0731381 0 24.451 0 -0.543412 1.63292 0.0700839 0 24.3506 2.21369 8.91918 24.7547 13.6876 -7.10543e-015 14.0455 -2.0065 -14.2893 -5.04382 12.3699 4.0594 22.2558 -0.272799 20.4319 0.161141 -8.02878 12.0298 -2.84217e-014 2.84217e-014 -18.3494 5.01767 -0.553946 31.2689 -2.84217e-014 0 2.01645 -4.57481 3.82156 28.0275 -2.84217e-014 0 27.4478 -3.70382 3.8499 -3.96464 22.2558 -0.272799 -16.3156 -2.88081 3.18703 -12.0298 -2.84217e-014 -2.84217e-014 8.41818 4.30569 11.0334 -31.2689 2.84217e-014 0 0.000505003 -0.889983 -4.32541 -28.0275 0 0 -12.1648 -0.97636 0.811012 10.0325 0 0 2.95524 -2.42348 1.63089 1.77636e-015 -38.4033 -2.84217e-014 -3.6356 19.1471 -3.46397 3.55271e-015 -44.1642 0 -1.02268 -9.80173 14.4562 3.55271e-015 -6.52112 15.0487 1.98785e-016 -3.97569e-016 3.18055e-015 -10.0325 0 2.84217e-014 -1.13058 0.416252 5.5513 0 -38.4033 2.84217e-014 3.0522 14.6751 -1.58385 -3.55271e-015 -44.1642 0 3.96496 -14.2033 -9.42514 0 -6.52112 15.0487 7.45443e-017 0 -1.59028e-015 
0 0 0 0 0 -0 -29.9372 86.0646 -203.458 0.644804 -3.28583 0.027274 7.10543e-015 8.22665 0 0.321223 -3.4394 0.0731443 3.55271e-015 24.451 0 -0.48087 1.64401 0.0700843 0 24.3506 2.21369 8.92864 24.7619 13.6884 0 14.0455 -2.0065 -14.2729 -4.96681 12.3852 4.0594 22.2558 -0.272799 20.4386 0.161147 -8.01314 12.0298 0 2.84217e-014 -18.3506 5.01768 -0.539912 31.2689 2.84217e-014 0 2.02617 -4.5378 3.83129 28.0275 0 2.84217e-014 27.1728 -3.67027 3.87788 -3.96464 22.2558 -0.272799 -16.3474 -2.88081 3.18703 -12.0298 0 0 8.39643 4.40736 11.0582 -31.2689 -2.84217e-014 0 -0.020671 -0.928935 -4.27897 -28.0275 0 0 -12.1321 -1.01535 0.806349 10.0325 0 0 2.96121 -2.23035 1.48909 3.55271e-015 -38.4033 0 -3.65529 18.9295 -3.38216 0 -44.1642 2.84217e-014 -1.05277 -9.86081 14.5394 -3.55271e-015 -6.52112 15.0487 -9.93923e-017 1.19271e-015 -1.59028e-015 -10.0325 0 0 -1.08152 0.462179 5.45656 1.42109e-014 -38.4033 0 2.98825 14.6775 -1.53117 0 -44.1642 0 3.97362 -14.2022 -9.36905 0 -6.52112 15.0487 -1.49089e-016 0 -0 
0 0 0 0 0 -0 -29.9372 86.0646 -203.39 0.627703 -3.29727 0.03314 0 8.22665 0 0.307291 -3.49953 0.073149 0 24.451 -2.84217e-014 -0.451449 1.65142 0.0700846 0 24.3506 2.21369 8.96722 24.7686 13.6791 0 14.0455 -2.0065 -14.2828 -4.89688 12.3861 4.0594 22.2558 -0.272799 20.4656 0.161151 -8.00396 12.0298 2.84217e-014 0 -18.3529 5.01895 -0.513961 31.2689 0 0 2.01386 -4.51587 3.84428 28.0275 0 2.84217e-014 27.1663 -3.6445 3.8939 -3.96464 22.2558 -0.272799 -16.3589 -2.89069 3.18706 -12.0298 0 0 8.37414 4.52348 11.0872 -31.2689 0 0 -0.033496 -0.932455 -4.24589 -28.0275 -2.84217e-014 0 -12.0996 -1.01721 0.788047 10.0325 -1.42109e-014 2.84217e-014 2.96139 -2.02686 1.33477 -3.55271e-015 -38.4033 2.84217e-014 -3.68265 18.7125 -3.31084 3.55271e-015 -44.1642 0 -0.9274 -9.94042 14.624 3.55271e-015 -6.52112 15.0487 -0 0 1.59028e-015 -10.0325 1.42109e-014 2.84217e-014 -1.03882 0.529111 5.43512 0 -38.4033 0 2.94933 14.6619 -1.51741 0 -44.1642 0 4.00283 -14.2499 -9.36947 0 -6.52112 15.0487 4.96962e-016 -7.95139e-016 -1.59028e-015 
0 0 0 0 0 -0 -29.9405 86.0646 -203.32 0.608991 -3.28751 0.035343 -3.55271e-015 8.22665 -2.84217e-014 0.289003 -3.5884 0.073156 3.55271e-015 24.451 0 -0.401541 1.66398 0.070085 0 24.3506 2.21369 8.95693 24.776 13.6822 0 14.0455 -2.0065 -14.2487 -4.84558 12.4017 4.0594 22.2558 -0.272799 20.4819 0.161529 -7.99389 12.0298 -2.84217e-014 -2.84217e-014 -18.3543 5.00332 -0.493872 31.2689 2.84217e-014 0 1.99138 -4.50257 3.88345 28.0275 -2.84217e-014 0 27.3846 -3.61729 3.91844 -3.96464 22.2558 -0.272799 -16.383 -2.89232 3.18174 -12.0298 -2.84217e-014 -2.84217e-014 8.33616 4.62953 11.1169 -31.2689 -5.68434e-014 0 -0.055106 -1.00533 -4.20775 -28.0275 2.84217e-014 -2.84217e-014 -12.0238 -1.09197 0.803581 10.0325 0 -2.84217e-014 2.96032 -1.84181 1.18997 0 -38.4033 0 -3.70251 18.4713 -3.23823 3.55271e-015 -44.1642 0 -0.924521 -9.9834 14.7365 7.10543e-015 -6.52112 15.0487 -9.93923e-017 3.97569e-016 3.18055e-015 -10.0325 0 0 -0.991151 0.52919 5.10653 3.55271e-015 -38.4033 0 2.83754 14.754 -1.10501 0 -44.1642 0 4.04704 -14.3309 -9.50018 -7.10543e-015 -6.52112 15.0487 1.46604e-015 0 -0 
0 0 0 0 0 -0 -29.9421 86.0638 -203.259 0.595022 -3.28109 0.046435 0 8.22665 0 0.280761 -3.64769 0.0733167 0 24.451 -2.84217e-014 -0.383699 1.62944 0.0705241 0 24.3506 2.21369 8.98229 24.8296 13.6697 -1.42109e-014 14.0455 -2.0065 -14.2462 -4.82059 12.399 4.0594 22.2558 -0.272799 20.5147 0.219705 -8.01439 12.0298 0 0 -18.3343 4.96477 -0.475083 31.2689 0 0 1.95801 -4.47312 3.89271 28.0275 2.84217e-014 0 27.1745 -3.58097 3.97421 -3.96464 22.2558 -0.272799 -16.4171 -2.86762 3.20197 -12.0298 0 0 8.33601 4.70639 11.1139 -31.2689 0 0 -0.044822 -1.0028 -4.16976 -28.0275 0 0 -12.0506 -1.08819 0.793271 10.0325 -1.42109e-014 0 2.94714 -1.66841 1.08262 1.77636e-015 -38.4033 2.84217e-014 -3.69065 18.2347 -3.17162 -3.55271e-015 -44.1642 -2.84217e-014 -0.929528 -10.0326 14.7998 0 -6.52112 15.0487 1.98785e-016 3.97569e-016 -0 -10.0325 0 0 -0.962587 0.592005 5.22823 3.55271e-015 -38.4033 0 2.8436 14.701 -1.22566 3.55271e-015 -44.1642 0 4.02436 -14.3497 -9.49892 0 -6.52112 15.0487 -2.23633e-016 0 -7.95139e-016 
0 0 0 0 0 -0 -29.9314 86.0629 -203.185 0.601226 -3.32579 0.047525 0 8.22665 0 0.266784 -3.67562 0.0735755 3.55271e-015 24.451 0 -0.371736 1.64052 0.0710479 0 24.3506 2.21369 8.99306 24.8095 13.6659 0 14.0455 -2.0065 -14.2224 -4.72939 12.4095 4.0594 22.2558 -0.272799 20.5359 0.205876 -8.01106 12.0298 0 0 -18.2116 4.65871 -0.359193 31.2689 0 0 1.66086 -4.32652 3.6906 28.0275 0 2.84217e-014 27.3422 -3.39518 4.05594 -3.96464 22.2558 -0.272799 -16.5226 -2.66176 3.19994 -12.0298 0 0 8.42019 4.58542 11.1623 -31.2689 0 0 -0.035643 -1.17127 -4.10894 -28.0275 2.84217e-014 0 -12.4109 -1.25608 0.768469 10.0325 0 -2.84217e-014 2.90117 -1.40485 0.972179 5.32907e-015 -38.4033 0 -3.66931 17.9381 -3.18132 -3.55271e-015 -44.1642 -2.84217e-014 -0.895552 -10.0931 14.9118 0 -6.52112 15.0487 1.98785e-016 3.97569e-016 1.59028e-015 -10.0325 2.84217e-014 -2.84217e-014 -0.966118 0.683988 5.17982 7.10543e-015 -38.4033 0 2.82083 14.7067 -1.19639 -7.10543e-015 -44.1642 0 3.98531 -14.4026 -9.46364 7.10543e-015 -6.52112 15.0487 1.06847e-015 3.97569e-016 -7.95139e-016 
0 0 0 0 0 -0 -29.931 86.0621 -203.124 0.59716 -3.31029 0.065307 3.55271e-015 8.22665 -5.68434e-014 0.250301 -3.75589 0.0738963 3.55271e-015 24.451 0 -0.351667 1.64405 0.0716189 -3.55271e-015 24.3506 2.21369 8.99414 24.8412 13.6501 7.10543e-015 14.0455 -2.0065 -14.2098 -4.72873 12.3983 4.0594 22.2558 -0.272799 20.5427 0.21521 -8.00741 12.0298 0 2.84217e-014 -18.188 4.64874 -0.337413 31.2689 2.84217e-014 0 1.63176 -4.3265 3.70695 28.0275 -2.84217e-014 0 27.3452 -3.38543 4.09253 -3.96464 22.2558 -0.272799 -16.5335 -2.66927 3.20132 -12.0298 0 -2.84217e-014 8.3927 4.67003 11.1698 -31.2689 0 0 -0.024311 -1.18587 -4.07798 -28.0275 0 -2.84217e-014 -12.4571 -1.27173 0.778425 10.0325 -1.42109e-014 -2.84217e-014 2.86546 -1.2182 0.911078 -1.77636e-015 -38.4033 2.84217e-014 -3.63134 17.6493 -3.10983 -3.55271e-015 -44.1642 0 -0.900359 -10.124 14.9288 3.55271e-015 -6.52112 15.0487 1.98785e-016 -3.97569e-016 -1.59028e-015 -10.0325 -1.42109e-014 -2.84217e-014 -0.936031 0.695993 5.08969 1.06581e-014 -38.4033 -2.84217e-014 2.76631 14.7398 -1.14498 0 -44.1642 2.84217e-014 4.03888 -14.4403 -9.46283 -7.10543e-015 -6.52112 15.0487 -2.48481e-016 -3.97569e-016 7.95139e-016 
0 0 0 0 0 -0 -29.9339 86.0613 -203.066 0.587562 -3.29184 0.073875 0 8.22665 -2.84217e-014 0.228977 -3.83289 0.0742313 3.55271e-015 24.451 0 -0.31735 1.64281 0.0722016 0 24.3506 2.21369 8.96418 24.8228 13.6517 0 14.0455 -2.0065 -14.1311 -4.66879 12.4173 4.0594 22.2558 -0.272799 20.5556 0.214325 -7.99743 12.0298 0 -2.84217e-014 -18.1826 4.6315 -0.329108 31.2689 2.84217e-014 -2.84217e-014 1.60758 -4.33186 3.72287 28.0275 0 0 27.3755 -3.36766 4.18059 -3.96464 22.2558 -0.272799 -16.5481 -2.67932 3.1842 -12.0298 0 -2.84217e-014 8.37129 4.78431 11.1917 -31.2689 5.68434e-014 -2.84217e-014 -0.07949 -1.03309 -4.10711 -28.0275 -2.84217e-014 2.84217e-014 -12.138 -1.12959 0.88088 10.0325 -1.42109e-014 0 2.8476 -1.03581 0.844309 1.77636e-015 -38.4033 0 -3.61094 17.3497 -3.05287 0 -44.1642 2.84217e-014 -0.894516 -10.1132 14.9588 -3.55271e-015 -6.52112 15.0487 2.20695e-032 -3.97569e-016 3.18055e-015 -10.0325 0 0 -0.898684 0.705011 5.075 3.55271e-015 -38.4033 -2.84217e-014 2.73014 14.7549 -1.18519 1.06581e-014 -44.1642 -2.84217e-014 4.04407 -14.4258 -9.4269 7.10543e-015 -6.52112 15.0487 3.97569e-016 -1.98785e-016 -1.59028e-015 
0 0 0 0 0 -0 -29.9285 86.0609 -203.005 0.591839 -3.26463 0.082208 3.55271e-015 8.22665 0 0.212254 -3.93283 0.0745399 7.10543e-015 24.451 -2.84217e-014 -0.304322 1.65919 0.0727612 3.55271e-015 24.3506 2.21369 8.99417 24.8176 13.6443 7.10543e-015 14.0455 -2.0065 -14.1532 -4.60988 12.4148 4.0594 22.2558 -0.272799 20.5682 0.204946 -7.98739 12.0298 2.84217e-014 0 -18.1727 4.62445 -0.31674 31.2689 -2.84217e-014 0 1.58622 -4.30898 3.74784 28.0275 0 0 27.3615 -3.33522 4.22059 -3.96464 22.2558 -0.272799 -16.5616 -2.69146 3.17736 -12.0298 0 -2.84217e-014 8.35452 4.88241 11.2024 -31.2689 2.84217e-014 0 -0.065104 -1.01982 -4.09033 -28.0275 0 0 -12.2698 -1.11724 0.885012 10.0325 1.42109e-014 2.84217e-014 2.79358 -0.855863 0.805295 1.77636e-015 -38.4033 -2.84217e-014 -3.55216 17.0397 -3.01949 0 -44.1642 -2.84217e-014 -0.838034 -10.0871 14.9697 1.06581e-014 -6.52112 15.0487 -9.93923e-017 3.97569e-016 -0 -10.0325 0 0 -0.884492 0.705149 5.04357 3.55271e-015 -38.4033 -2.84217e-014 2.6893 14.7736 -1.25939 3.55271e-015 -44.1642 2.84217e-014 4.08207 -14.4083 -9.32879 0 -6.52112 15.0487 -4.96962e-016 0 -0 
0 0 0 0 0 -0 -29.9243 86.0609 -202.947 0.594732 -3.26285 0.0946 0 8.22665 0 0.199838 -3.98993 0.0747729 7.10543e-015 24.451 0 -0.303256 1.65667 0.0732607 -3.55271e-015 24.3506 2.21369 9.09629 24.7796 13.6 1.42109e-014 14.0455 -2.0065 -14.2424 -4.46987 12.3745 4.0594 22.2558 -0.272799 20.5953 0.192302 -7.97814 12.0298 -2.84217e-014 0 -18.1784 4.618 -0.302207 31.2689 -2.84217e-014 0 1.54592 -4.40564 3.72327 28.0275 -5.68434e-014 0 27.6473 -3.36667 4.43415 -3.96464 22.2558 -0.272799 -16.5609 -2.69722 3.17306 -12.0298 0 0 8.32989 4.96984 11.2068 -31.2689 0 0 -0.020212 -0.938673 -4.07932 -28.0275 2.84217e-014 -2.84217e-014 -12.3951 -1.03908 0.918178 10.0325 0 2.84217e-014 2.74616 -0.641738 0.771619 -3.55271e-015 -38.4033 0 -3.51193 16.715 -2.97084 0 -44.1642 0 -0.792466 -10.0791 14.9884 3.55271e-015 -6.52112 15.0487 -4.96962e-016 1.19271e-015 3.18055e-015 -10.0325 0 0 -0.863713 0.721199 5.00915 -3.55271e-015 -38.4033 0 2.64871 14.814 -1.25688 3.55271e-015 -44.1642 2.84217e-014 4.08788 -14.4258 -9.32029 -7.10543e-015 -6.52112 15.0487 -1.81391e-015 -1.98785e-016 7.95139e-016 
0 0 0 0 0 -0 -29.9186 86.0665 -202.895 0.608555 -3.23871 0.108921 -3.55271e-015 8.22665 0 0.173404 -4.05896 0.0748921 3.55271e-015 24.451 0 -0.290951 1.63846 0.0736648 0 24.3506 2.21369 9.0958 24.7947 13.5831 0 14.0455 -2.0065 -14.2282 -4.44691 12.3634 4.0594 22.2558 -0.272799 20.6057 0.199714 -7.97815 12.0298 2.84217e-014 2.84217e-014 -18.1768 4.62829 -0.290544 31.2689 -2.84217e-014 2.84217e-014 1.52151 -4.35114 3.74507 28.0275 -2.84217e-014 2.84217e-014 27.6368 -3.29123 4.51865 -3.96464 22.2558 -0.272799 -16.5741 -2.68308 3.16835 -12.0298 2.84217e-014 0 8.30415 5.03837 11.2164 -31.2689 2.84217e-014 0 -0.006672 -0.940458 -4.06575 -28.0275 -2.84217e-014 2.84217e-014 -12.4004 -1.03916 0.906249 10.0325 0 2.84217e-014 2.6761 -0.467227 0.778837 1.77636e-015 -38.4033 -2.84217e-014 -3.4326 16.4135 -2.9581 -3.55271e-015 -44.1642 0 -0.751719 -10.0459 14.9782 0 -6.52112 15.0487 9.93923e-017 0 -0 -10.0325 0 0 -0.85706 0.70016 4.9728 3.55271e-015 -38.4033 0 2.6072 14.8731 -1.25882 0 -44.1642 0 4.14434 -14.4169 -9.30194 0 -6.52112 15.0487 -1.31695e-015 -3.97569e-016 -7.95139e-016 
